<?xml version="1.0" encoding="UTF-8"?>
<svg id="Camada_1" data-name="Camada 1" xmlns="http://www.w3.org/2000/svg" viewBox="0 0 1800 500">
  <style>
    .st0 { fill: #FFFFFF; }
  </style>
  <g class="st0">
    <path d="M1090.24,345.49c0,.61.4,1.01,1.01,1.06l22.5,1.42c2.27.15,3.79,1.77,3.79,4.04v11.12c0,3.64-2.43,6.07-6.07,6.07h-23.76c-3.64,0-6.07-2.43-6.07-6.07v-6.72h8.59v3.18c0,.61.4,1.01,1.01,1.01h16.68c.61,0,1.01-.4,1.01-1.01v-3.29c0-.61-.4-1.01-1.01-1.06l-22.5-1.42c-2.27-.15-3.79-1.77-3.79-4.04v-10.67c0-3.64,2.43-6.07,6.07-6.07h23.76c3.64,0,6.07,2.43,6.07,6.07v5.91h-8.59v-2.38c0-.61-.4-1.01-1.01-1.01h-16.68c-.61,0-1.01.4-1.01,1.01v2.83Z"/>
    <path d="M1131.08,339.63l8.8,19.11,8.39-19.11h9.4l-15.01,34.12c-1.47,3.34-2.43,6.07-6.07,6.07h-10.82v-8.59h7.99c.61,0,.86-.45,1.06-1.01l.45-1.01-13.65-29.57h9.45Z"/>
    <path d="M1164.75,356.66c-2.12-.1-3.54-1.62-3.54-3.74v-7.23c0-3.64,2.43-6.07,6.07-6.07h20.73c3.64,0,6.07,2.43,6.07,6.07v4.09h-8.59v-.56c0-.61-.4-1.01-1.01-1.01h-13.65c-.61,0-1.01.4-1.01,1.01v.66c0,.61.4,1.06,1.01,1.11l19.72,1.21c2.12.1,3.54,1.62,3.54,3.74v7.18c0,3.64-2.43,6.07-6.07,6.07h-20.73c-3.64,0-6.07-2.43-6.07-6.07v-4.09h8.59v.56c0,.61.4,1.01,1.01,1.01h13.65c.61,0,1.01-.4,1.01-1.01v-.66c0-.61-.4-1.01-1.01-1.06l-19.72-1.21Z"/>
    <path d="M1210.45,369.2c-3.64,0-6.07-2.43-6.07-6.07v-15.97h-5.71v-7.58h5.71v-6.57h8.59v6.57h13.24v7.58h-13.24v12.44c0,.61.4,1.01,1.01,1.01h11.22v8.59h-14.76Z"/>
    <path d="M1240.37,356.26v3.34c0,.61.4,1.01,1.01,1.01h13.65c.61,0,1.01-.4,1.01-1.01v-1.16h8.59v4.7c0,3.64-2.43,6.07-6.07,6.07h-20.73c-3.64,0-6.07-2.43-6.07-6.07v-17.44c0-3.64,2.43-6.07,6.07-6.07h20.73c3.64,0,6.07,2.43,6.07,6.07v10.57h-24.26ZM1240.37,351.71h15.67v-2.48c0-.61-.4-1.01-1.01-1.01h-13.65c-.61,0-1.01.4-1.01,1.01v2.48Z"/>
    <path d="M1269.99,339.63h8.59v3.39c.91-2.12,2.88-3.39,5.56-3.39h12.64c2.93,0,5.11,1.62,5.81,4.15.71-2.53,2.83-4.15,5.81-4.15h12.64c3.64,0,6.07,2.43,6.07,6.07v23.51h-8.59v-19.97c0-.61-.4-1.01-1.01-1.01h-14.66v20.98h-8.59v-19.97c0-.61-.4-1.01-1.01-1.01h-14.66v20.98h-8.59v-29.57Z"/>
    <path d="M1336.47,356.66c-2.12-.1-3.54-1.62-3.54-3.74v-7.23c0-3.64,2.43-6.07,6.07-6.07h20.73c3.64,0,6.07,2.43,6.07,6.07v4.09h-8.59v-.56c0-.61-.4-1.01-1.01-1.01h-13.65c-.61,0-1.01.4-1.01,1.01v.66c0,.61.4,1.06,1.01,1.11l19.72,1.21c2.12.1,3.54,1.62,3.54,3.74v7.18c0,3.64-2.43,6.07-6.07,6.07h-20.73c-3.64,0-6.07-2.43-6.07-6.07v-4.09h8.59v.56c0,.61.4,1.01,1.01,1.01h13.65c.61,0,1.01-.4,1.01-1.01v-.66c0-.61-.4-1.01-1.01-1.06l-19.72-1.21Z"/>
    <path d="M1394.65,341.6v2.73c0,.61.4,1.01,1.01,1.01h29.37v7.48h-3.84v9.81c0,3.94-2.63,6.57-6.57,6.57h-23c-3.94,0-6.57-2.63-6.57-6.57v-6.98c0-4.95,2.73-6.57,5.16-6.57-1.92-.4-4.15-1.87-4.15-6.52v-2.93c0-3.94,2.63-6.57,6.57-6.57h21.99c3.94-.05,6.57,2.63,6.57,6.57v2.68h-8.59v-.71c0-.61-.4-1.01-1.01-1.01h-15.92c-.61,0-1.01.4-1.01,1.01ZM1394.65,352.82c-.61,0-1.01.4-1.01,1.01v6.77c0,.61.4,1.01,1.01,1.01h16.93c.61,0,1.01-.4,1.01-1.01v-7.78h-17.95Z"/>
    <path d="M1452.83,345.49c0,.61.4,1.01,1.01,1.06l22.5,1.42c2.27.15,3.79,1.77,3.79,4.04v11.12c0,3.64-2.43,6.07-6.07,6.07h-23.76c-3.64,0-6.07-2.43-6.07-6.07v-6.72h8.59v3.18c0,.61.4,1.01,1.01,1.01h16.68c.61,0,1.01-.4,1.01-1.01v-3.29c0-.61-.4-1.01-1.01-1.06l-22.5-1.42c-2.27-.15-3.79-1.77-3.79-4.04v-10.67c0-3.64,2.43-6.07,6.07-6.07h23.76c3.64,0,6.07,2.43,6.07,6.07v5.91h-8.59v-2.38c0-.61-.4-1.01-1.01-1.01h-16.68c-.61,0-1.01.4-1.01,1.01v2.83Z"/>
    <path d="M1518.85,363.13c0,3.64-2.43,6.07-6.07,6.07h-20.73c-3.64,0-6.07-2.43-6.07-6.07v-17.44c0-3.64,2.43-6.07,6.07-6.07h20.73c3.64,0,6.07,2.43,6.07,6.07v17.44ZM1510.26,349.23c0-.61-.4-1.01-1.01-1.01h-13.65c-.61,0-1.01.4-1.01,1.01v10.36c0,.61.4,1.01,1.01,1.01h13.65c.61,0,1.01-.4,1.01-1.01v-10.36Z"/>
    <path d="M1524.71,333.06h8.59v36.14h-8.59v-36.14Z"/>
    <path d="M1571.98,369.2h-8.59v-3.39c-.91,2.07-2.93,3.39-5.56,3.39h-12.64c-3.64,0-6.07-2.43-6.07-6.07v-23.51h8.59v19.97c0,.61.4,1.01,1.01,1.01h14.66v-20.98h8.59v29.57Z"/>
    <path d="M1588.31,369.2c-3.64,0-6.07-2.43-6.07-6.07v-15.97h-5.71v-7.58h5.71v-6.57h8.59v6.57h13.24v7.58h-13.24v12.44c0,.61.4,1.01,1.01,1.01h11.22v8.59h-14.76Z"/>
    <path d="M1609.89,333.06h8.59v4.25h-8.59v-4.25ZM1609.94,339.58h8.59l-.05,29.62h-8.59l.05-29.62Z"/>
    <path d="M1657.2,363.13c0,3.64-2.43,6.07-6.07,6.07h-20.73c-3.64,0-6.07-2.43-6.07-6.07v-17.44c0-3.64,2.43-6.07,6.07-6.07h20.73c3.64,0,6.07,2.43,6.07,6.07v17.44ZM1648.61,349.23c0-.61-.4-1.01-1.01-1.01h-13.65c-.61,0-1.01.4-1.01,1.01v10.36c0,.61.4,1.01,1.01,1.01h13.65c.61,0,1.01-.4,1.01-1.01v-10.36Z"/>
    <path d="M1662.56,339.63h8.59v3.39c.91-2.12,2.88-3.39,5.56-3.39h12.64c3.64,0,6.07,2.43,6.07,6.07v23.51h-8.59v-19.97c0-.61-.4-1.01-1.01-1.01h-14.66v20.98h-8.59v-29.57Z"/>
    <path d="M1704.77,356.66c-2.12-.1-3.54-1.62-3.54-3.74v-7.23c0-3.64,2.43-6.07,6.07-6.07h20.73c3.64,0,6.07,2.43,6.07,6.07v4.09h-8.59v-.56c0-.61-.4-1.01-1.01-1.01h-13.65c-.61,0-1.01.4-1.01,1.01v.66c0,.61.4,1.06,1.01,1.11l19.72,1.21c2.12.1,3.54,1.62,3.54,3.74v7.18c0,3.64-2.43,6.07-6.07,6.07h-20.73c-3.64,0-6.07-2.43-6.07-6.07v-4.09h8.59v.56c0,.61.4,1.01,1.01,1.01h13.65c.61,0,1.01-.4,1.01-1.01v-.66c0-.61-.4-1.01-1.01-1.06l-19.72-1.21Z"/>
    <!-- Logo symbol section would go here - extracted from original file -->
  </g>
</svg>