<?xml version="1.0" encoding="UTF-8"?>
<svg id="Camada_1" data-name="Camada 1" xmlns="http://www.w3.org/2000/svg" viewBox="0 0 1800 500">
  <g>
    <path d="M1090.24,345.49c0,.61.4,1.01,1.01,1.06l22.5,1.42c2.27.15,3.79,1.77,3.79,4.04v11.12c0,3.64-2.43,6.07-6.07,6.07h-23.76c-3.64,0-6.07-2.43-6.07-6.07v-6.72h8.59v3.18c0,.61.4,1.01,1.01,1.01h16.68c.61,0,1.01-.4,1.01-1.01v-3.29c0-.61-.4-1.01-1.01-1.06l-22.5-1.42c-2.27-.15-3.79-1.77-3.79-4.04v-10.67c0-3.64,2.43-6.07,6.07-6.07h23.76c3.64,0,6.07,2.43,6.07,6.07v5.91h-8.59v-2.38c0-.61-.4-1.01-1.01-1.01h-16.68c-.61,0-1.01.4-1.01,1.01v2.83Z"/>
    <path d="M1131.08,339.63l8.8,19.11,8.39-19.11h9.4l-15.01,34.12c-1.47,3.34-2.43,6.07-6.07,6.07h-10.82v-8.59h7.99c.61,0,.86-.45,1.06-1.01l.45-1.01-13.65-29.57h9.45Z"/>
    <path d="M1164.75,356.66c-2.12-.1-3.54-1.62-3.54-3.74v-7.23c0-3.64,2.43-6.07,6.07-6.07h20.73c3.64,0,6.07,2.43,6.07,6.07v4.09h-8.59v-.56c0-.61-.4-1.01-1.01-1.01h-13.65c-.61,0-1.01.4-1.01,1.01v.66c0,.61.4,1.06,1.01,1.11l19.72,1.21c2.12.1,3.54,1.62,3.54,3.74v7.18c0,3.64-2.43,6.07-6.07,6.07h-20.73c-3.64,0-6.07-2.43-6.07-6.07v-4.09h8.59v.56c0,.61.4,1.01,1.01,1.01h13.65c.61,0,1.01-.4,1.01-1.01v-.66c0-.61-.4-1.01-1.01-1.06l-19.72-1.21Z"/>
    <path d="M1210.45,369.2c-3.64,0-6.07-2.43-6.07-6.07v-15.97h-5.71v-7.58h5.71v-6.57h8.59v6.57h13.24v7.58h-13.24v12.44c0,.61.4,1.01,1.01,1.01h11.22v8.59h-14.76Z"/>
    <path d="M1240.37,356.26v3.34c0,.61.4,1.01,1.01,1.01h13.65c.61,0,1.01-.4,1.01-1.01v-1.16h8.59v4.7c0,3.64-2.43,6.07-6.07,6.07h-20.73c-3.64,0-6.07-2.43-6.07-6.07v-17.44c0-3.64,2.43-6.07,6.07-6.07h20.73c3.64,0,6.07,2.43,6.07,6.07v10.57h-24.26ZM1240.37,351.71h15.67v-2.48c0-.61-.4-1.01-1.01-1.01h-13.65c-.61,0-1.01.4-1.01,1.01v2.48Z"/>
    <path d="M1269.99,339.63h8.59v3.39c.91-2.12,2.88-3.39,5.56-3.39h12.64c2.93,0,5.11,1.62,5.81,4.15.71-2.53,2.83-4.15,5.81-4.15h12.64c3.64,0,6.07,2.43,6.07,6.07v23.51h-8.59v-19.97c0-.61-.4-1.01-1.01-1.01h-14.66v20.98h-8.59v-19.97c0-.61-.4-1.01-1.01-1.01h-14.66v20.98h-8.59v-29.57Z"/>
    <path d="M1336.47,356.66c-2.12-.1-3.54-1.62-3.54-3.74v-7.23c0-3.64,2.43-6.07,6.07-6.07h20.73c3.64,0,6.07,2.43,6.07,6.07v4.09h-8.59v-.56c0-.61-.4-1.01-1.01-1.01h-13.65c-.61,0-1.01.4-1.01,1.01v.66c0,.61.4,1.06,1.01,1.11l19.72,1.21c2.12.1,3.54,1.62,3.54,3.74v7.18c0,3.64-2.43,6.07-6.07,6.07h-20.73c-3.64,0-6.07-2.43-6.07-6.07v-4.09h8.59v.56c0,.61.4,1.01,1.01,1.01h13.65c.61,0,1.01-.4,1.01-1.01v-.66c0-.61-.4-1.01-1.01-1.06l-19.72-1.21Z"/>
    <path d="M1394.65,341.6v2.73c0,.61.4,1.01,1.01,1.01h29.37v7.48h-3.84v9.81c0,3.94-2.63,6.57-6.57,6.57h-23c-3.94,0-6.57-2.63-6.57-6.57v-6.98c0-4.95,2.73-6.57,5.16-6.57-1.92-.4-4.15-1.87-4.15-6.52v-2.93c0-3.94,2.63-6.57,6.57-6.57h21.99c3.94-.05,6.57,2.63,6.57,6.57v2.68h-8.59v-.71c0-.61-.4-1.01-1.01-1.01h-15.92c-.61,0-1.01.4-1.01,1.01ZM1394.65,352.82c-.61,0-1.01.4-1.01,1.01v6.77c0,.61.4,1.01,1.01,1.01h16.93c.61,0,1.01-.4,1.01-1.01v-7.78h-17.95Z"/>
    <path d="M1452.83,345.49c0,.61.4,1.01,1.01,1.06l22.5,1.42c2.27.15,3.79,1.77,3.79,4.04v11.12c0,3.64-2.43,6.07-6.07,6.07h-23.76c-3.64,0-6.07-2.43-6.07-6.07v-6.72h8.59v3.18c0,.61.4,1.01,1.01,1.01h16.68c.61,0,1.01-.4,1.01-1.01v-3.29c0-.61-.4-1.01-1.01-1.06l-22.5-1.42c-2.27-.15-3.79-1.77-3.79-4.04v-10.67c0-3.64,2.43-6.07,6.07-6.07h23.76c3.64,0,6.07,2.43,6.07,6.07v5.91h-8.59v-2.38c0-.61-.4-1.01-1.01-1.01h-16.68c-.61,0-1.01.4-1.01,1.01v2.83Z"/>
    <path d="M1518.85,363.13c0,3.64-2.43,6.07-6.07,6.07h-20.73c-3.64,0-6.07-2.43-6.07-6.07v-17.44c0-3.64,2.43-6.07,6.07-6.07h20.73c3.64,0,6.07,2.43,6.07,6.07v17.44ZM1510.26,349.23c0-.61-.4-1.01-1.01-1.01h-13.65c-.61,0-1.01.4-1.01,1.01v10.36c0,.61.4,1.01,1.01,1.01h13.65c.61,0,1.01-.4,1.01-1.01v-10.36Z"/>
    <path d="M1524.71,333.06h8.59v36.14h-8.59v-36.14Z"/>
    <path d="M1571.98,369.2h-8.59v-3.39c-.91,2.07-2.93,3.39-5.56,3.39h-12.64c-3.64,0-6.07-2.43-6.07-6.07v-23.51h8.59v19.97c0,.61.4,1.01,1.01,1.01h14.66v-20.98h8.59v29.57Z"/>
    <path d="M1588.31,369.2c-3.64,0-6.07-2.43-6.07-6.07v-15.97h-5.71v-7.58h5.71v-6.57h8.59v6.57h13.24v7.58h-13.24v12.44c0,.61.4,1.01,1.01,1.01h11.22v8.59h-14.76Z"/>
    <path d="M1609.89,333.06h8.59v4.25h-8.59v-4.25ZM1609.94,339.58h8.59l-.05,29.62h-8.59l.05-29.62Z"/>
    <path d="M1657.2,363.13c0,3.64-2.43,6.07-6.07,6.07h-20.73c-3.64,0-6.07-2.43-6.07-6.07v-17.44c0-3.64,2.43-6.07,6.07-6.07h20.73c3.64,0,6.07,2.43,6.07,6.07v17.44ZM1648.61,349.23c0-.61-.4-1.01-1.01-1.01h-13.65c-.61,0-1.01.4-1.01,1.01v10.36c0,.61.4,1.01,1.01,1.01h13.65c.61,0,1.01-.4,1.01-1.01v-10.36Z"/>
    <path d="M1662.56,339.63h8.59v3.39c.91-2.12,2.88-3.39,5.56-3.39h12.64c3.64,0,6.07,2.43,6.07,6.07v23.51h-8.59v-19.97c0-.61-.4-1.01-1.01-1.01h-14.66v20.98h-8.59v-29.57Z"/>
    <path d="M1704.77,356.66c-2.12-.1-3.54-1.62-3.54-3.74v-7.23c0-3.64,2.43-6.07,6.07-6.07h20.73c3.64,0,6.07,2.43,6.07,6.07v4.09h-8.59v-.56c0-.61-.4-1.01-1.01-1.01h-13.65c-.61,0-1.01.4-1.01,1.01v.66c0,.61.4,1.06,1.01,1.11l19.72,1.21c2.12.1,3.54,1.62,3.54,3.74v7.18c0,3.64-2.43,6.07-6.07,6.07h-20.73c-3.64,0-6.07-2.43-6.07-6.07v-4.09h8.59v.56c0,.61.4,1.01,1.01,1.01h13.65c.61,0,1.01-.4,1.01-1.01v-.66c0-.61-.4-1.01-1.01-1.06l-19.72-1.21Z"/>
  </g>
  <g>
    <g>
      <path d="M545.26,264.84c0,6.61.71,9.47,3.57,11.26,3.93,2.32,4.29,2.32,32.89,2.5q38.97-.18,38.97-10.55c0-7.15-2.68-8.94-14.3-9.12-4.11,0-15.91-.54-28.6-1.07-13.23-.72-25.03-1.25-28.96-1.25-17.34-.54-25.74-3.04-31.11-9.12-4.47-5.36-6.61-13.05-6.61-25.03,0-17.7,4.11-28.42,12.51-33.07,9.3-5.01,19.67-6.08,62.75-6.08,33.25,0,45.77,1.61,54.35,6.61,7.69,4.83,10.9,12.51,10.9,27.17,0,.72,0,3.22-.18,5.54h-35.04c-.18-5.9-.71-7.51-2.68-9.3-2.86-2.32-6.97-2.68-34.32-2.68-30.57,0-33.07.72-33.07,9.47,0,4.29,1.61,6.61,5.01,7.69,3.22.89,12.51,1.43,38.61,2.15,38.44,1.07,46.48,2.15,53.99,6.61,8.76,5.18,11.98,13.41,11.98,30.39,0,20.2-4.65,30.39-16.27,35.04-7.33,3.22-21.63,4.11-58.82,4.11s-50.41-1.61-58.99-6.44c-8.94-5.01-11.8-12.16-11.8-29.14v-5.72h35.22Z"/>
      <path d="M805.91,185.11v30.39h-53.09v88.85h-38.08v-88.85h-53.1v-30.39h144.27Z"/>
      <path d="M917.46,284.15h-78.84l-10.19,20.2h-41.47l63.11-119.24h56.49l62.39,119.24h-41.3l-10.19-20.2ZM881.71,212.82h-7.15l-23.06,45.23h53.27l-23.06-45.23Z"/>
      <path d="M1128.23,236.77v3.22c0,11.8-.72,32.18-1.25,37.9-1.43,13.94-9.12,22.17-23.42,25.03-12.16,2.5-24.85,3.22-57.03,3.22-40.94,0-53.63-1.61-63.64-8.4-6.61-4.47-10.01-11.08-11.44-22.7-.71-5.18-1.07-16.98-1.07-32.18,0-32.36,3.04-44.16,13.05-51.13,8.58-6.08,27.53-8.4,69.36-8.4,44.34,0,60.78,3.04,68.65,12.34,5.01,5.9,6.44,13.23,6.61,30.75h-36.29c-.18-6.97-.54-8.4-2.86-10.01-3.57-2.5-11.98-3.22-39.15-3.22-42.91,0-43.08.18-43.08,31.11,0,20.2,1.07,26.28,5.01,29.5q4.11,3.22,37.72,3.75c33.97-.18,36.83-.36,40.94-3.58,1.97-1.97,2.5-4.83,2.5-13.41h-47.73v-23.78h83.13Z"/>
      <path d="M1274.65,185.11v28.07h-96.18v17.34h91.35v26.28h-91.35v18.95h96.89v28.6h-132.65v-119.24h131.93Z"/>
    </g>
    <g>
      <path d="M1430.48,185.11v31.28h-54.65v91.45h-39.19v-91.45h-54.65v-31.28h148.48Z"/>
      <path d="M1576.56,185.11v28.89h-98.99v17.85h94.02v27.05h-94.02v19.5h99.73v29.44h-136.52v-122.72h135.79Z"/>
      <path d="M1587.79,307.83v-122.72h36.95v70.83l63.68-70.83h46.78l-110.47,122.72h-36.95ZM1656.59,272.42h46.78l31.84,35.41h-46.78l-31.84-35.41Z"/>
    </g>
  </g>
  <path d="M467.08,130.2v94.42h-104.07s0,145.19,0,145.19H65.53c-2.31-.79,1.54-2.84,1.77-4.07l62.19-63.7c-44.14-19.62-65.85-69.32-48.1-115.12,12.17-31.39,40.07-52.01,73.22-56.74l312.48.02ZM267.06,145.94h-111.43c-6.63,0-23.7,7.27-29.65,10.96-44.09,27.28-46.82,91.82-4.47,122.16,10.92,7.82,23.6,11.36,35.4,17.41l-54.83,57.09,107.9.03c77.8-8.25,94.41-108.83,23.26-143.11-7.02-3.38-14.6-5.79-21.49-9.46l55.32-55.08Z"/>
  <rect x="430.07" y="339.36" width="619.23" height="30.46"/>
</svg>